<?xml version="1.0" standalone="no"?>
<!DOCTYPE svg PUBLIC "-//W3C//DTD SVG 20010904//EN"
 "http://www.w3.org/TR/2001/REC-SVG-20010904/DTD/svg10.dtd">
<svg version="1.0" xmlns="http://www.w3.org/2000/svg"
 width="1024.000000pt" height="1024.000000pt" viewBox="0 0 1024.000000 1024.000000"
 preserveAspectRatio="xMidYMid meet">
<metadata>
Created by potrace 1.11, written by Peter Selinger 2001-2013
</metadata>
<g transform="translate(0.000000,1024.000000) scale(0.100000,-0.100000)"
fill="#000000" stroke="none">
<path d="M6740 10196 c-52 -24 -137 -63 -187 -87 l-93 -43 0 -796 0 -797 -51
-84 c-74 -123 -145 -212 -266 -332 -185 -182 -392 -334 -653 -477 -127 -70
-171 -105 -203 -165 l-22 -40 -3 -2986 -2 -2986 -228 -17 c-125 -9 -248 -19
-274 -22 l-48 -6 -2 2539 -3 2540 -30 48 c-47 75 -96 97 -373 165 -433 108
-833 243 -1469 496 -119 47 -227 91 -240 97 l-23 10 0 514 0 514 -152 74
c-238 114 -283 120 -419 54 -520 -251 -897 -654 -1024 -1094 -59 -204 -55 19
-55 -3391 l0 -3134 273 2 272 3 5 3140 5 3140 27 98 c35 125 103 263 176 353
99 123 270 264 319 264 l23 0 0 -3500 0 -3500 275 0 275 0 0 2935 c0 1614 3
2935 8 2935 4 0 113 -41 241 -90 512 -197 880 -318 1254 -411 l87 -21 0 -2429
c0 -2303 -1 -2428 -17 -2433 -10 -3 -72 -16 -138 -30 -333 -70 -634 -157 -953
-277 -168 -63 -392 -160 -392 -170 0 -5 216 -9 519 -9 l519 0 69 31 c652 295
1441 474 2261 511 144 6 262 15 262 19 0 8 -63 15 -260 29 -85 7 -170 14 -187
16 l-33 5 0 2862 0 2862 126 79 c152 95 332 229 439 327 l80 73 3 -3407 2
-3407 285 0 285 0 0 4315 c0 2373 3 4315 6 4315 9 0 23 -19 107 -145 215 -322
345 -675 410 -1115 l21 -145 3 -3632 3 -3633 23 -4 c12 -3 92 -14 177 -26 86
-11 196 -29 245 -39 50 -10 93 -16 98 -12 4 4 6 1670 5 3702 l-3 3694 -23 143
c-58 370 -133 619 -276 917 -121 252 -245 444 -445 690 -137 167 -201 235
-321 340 l-98 85 -63 0 c-54 0 -78 -7 -159 -44z"/>
<path d="M920 415 l0 -185 3608 0 c2410 0 3645 -4 3722 -10 336 -31 576 -77
902 -176 82 -24 153 -44 159 -44 5 0 9 12 7 26 -3 24 -17 33 -138 84 -675 285
-1186 404 -2040 472 -91 8 -1117 12 -3177 15 l-3043 4 0 -186z"/>
</g>
</svg>
