<svg height='100px' width='100px'  fill="#343a40" xmlns="http://www.w3.org/2000/svg" xmlns:xlink="http://www.w3.org/1999/xlink" version="1.1" x="0px" y="0px" viewBox="0 0 100 100" enable-background="new 0 0 100 100" xml:space="preserve"><g><path d="M98,46h-5.694C90.406,25.752,74.247,9.594,54,7.694V2h-8v5.694C25.752,9.594,9.594,25.752,7.694,46H2v8h5.694   C9.594,74.247,25.752,90.406,46,92.306V98h8v-5.694C74.247,90.406,90.406,74.247,92.306,54H98V46z M54,84.261V72h-8v12.261   C30.168,82.424,17.577,69.831,15.739,54H28v-8H15.739C17.577,30.168,30.168,17.577,46,15.739V28h8V15.739   C69.831,17.577,82.424,30.168,84.261,46H72v8h12.261C82.424,69.831,69.831,82.424,54,84.261z"></path><circle cx="50" cy="50" r="7"></circle></g></svg>