<svg xmlns="http://www.w3.org/2000/svg" xmlns:xlink="http://www.w3.org/1999/xlink" viewBox="0 0 100 125" version="1.1" xml:space="preserve" style="" x="0px" y="0px" fill-rule="evenodd" clip-rule="evenodd" stroke-linejoin="round" stroke-miterlimit="1.41421"><g transform="matrix(1,0,0,1,-118,-358.019)"><path d="M166.5,390.062L166.5,386.994C166.5,386.165 167.172,385.494 168,385.494C168.828,385.494 169.5,386.165 169.5,386.994L169.5,390.062C178.252,390.783 185.227,397.765 185.94,406.519L189.026,406.519C189.854,406.519 190.526,407.191 190.526,408.019C190.526,408.848 189.854,409.519 189.026,409.519L185.937,409.519C185.207,418.255 178.239,425.218 169.5,425.938L169.5,429.045C169.5,429.874 168.828,430.545 168,430.545C167.172,430.545 166.5,429.874 166.5,429.045L166.5,425.938C157.761,425.218 150.793,418.255 150.063,409.519L146.974,409.519C146.146,409.519 145.474,408.848 145.474,408.019C145.474,407.191 146.146,406.519 146.974,406.519L150.06,406.519C150.773,397.765 157.748,390.783 166.5,390.062ZM183,408C183,416.285 176.285,423 168,423C159.715,423 153,416.285 153,408C153,399.715 159.715,393 168,393C176.285,393 183,399.715 183,408ZM177,408C177,412.971 172.971,417 168,417C163.029,417 159,412.971 159,408C159,403.029 163.029,399 168,399C172.971,399 177,403.029 177,408ZM174,408C174,411.314 171.314,414 168,414C164.686,414 162,411.314 162,408C162,404.686 164.686,402 168,402C171.314,402 174,404.686 174,408Z" style="" fill="black"/></g></svg>
